<?xml version="1.0" encoding="utf-8"?>
<!-- Generator: Adobe Illustrator 16.0.0, SVG Export Plug-In . SVG Version: 6.00 Build 0)  -->
<!DOCTYPE svg PUBLIC "-//W3C//DTD SVG 1.1//EN" "http://www.w3.org/Graphics/SVG/1.1/DTD/svg11.dtd">
<svg version="1.1" xmlns="http://www.w3.org/2000/svg" xmlns:xlink="http://www.w3.org/1999/xlink" x="0px" y="0px" width="128px"
	 height="128px" viewBox="0 0 128 128" enable-background="new 0 0 128 128" xml:space="preserve">
<g id="Layer_1">
</g>
<g id="Layer_2">
	<g>
		<path fill="#D8D8D8" d="M95.963,114.436c-3.352,0.762-6.729,1.371-10.131,1.828s-6.627,0.686-9.674,0.686
			c-5.078,0-9.457-0.533-13.139-1.6c-3.683-1.066-6.73-2.69-9.141-4.875c-2.413-2.182-4.189-4.963-5.332-8.34
			s-1.714-7.4-1.714-12.074V52.28H26.038V37.807h20.795V18.002l19.042-4.951v24.756h30.088V52.28H65.875v36.41
			c0,4.418,1.016,7.758,3.047,10.018s5.434,3.389,10.207,3.389c3.047,0,6.018-0.253,8.912-0.762
			c2.895-0.506,5.535-1.091,7.922-1.752V114.436z"/>
	</g>
</g>
<g id="Layer_3">
</g>
</svg>
