<?xml version="1.0" encoding="utf-8"?>
<!-- Generator: Adobe Illustrator 16.0.0, SVG Export Plug-In . SVG Version: 6.00 Build 0)  -->
<!DOCTYPE svg PUBLIC "-//W3C//DTD SVG 1.1//EN" "http://www.w3.org/Graphics/SVG/1.1/DTD/svg11.dtd">
<svg version="1.1" xmlns="http://www.w3.org/2000/svg" xmlns:xlink="http://www.w3.org/1999/xlink" x="0px" y="0px" width="64px"
	 height="64px" viewBox="0 0 64 64" enable-background="new 0 0 64 64" xml:space="preserve">
<g id="Layer_1" display="none">
</g>
<g id="Layer_2">
</g>
<g id="Layer_3">
</g>
<g id="Layer_4">
</g>
<g id="Layer_4_copy_2">
</g>
<g id="Layer_4_copy_3">
</g>
<g id="Layer_4_copy">
	<path d="M51.904,21.766c0.951,3.286,1.454,6.721,1.454,10.234c0,9.81-3.826,19.038-10.772,25.984l2.828,2.828
		C53.116,53.111,57.358,42.878,57.358,32c0-4.641-0.788-9.157-2.273-13.416L51.904,21.766z"/>
</g>
<g id="Layer_4_copy_4">
	<path d="M49.017,7.313c-1.103-1.44-2.299-2.822-3.603-4.126l-2.828,2.828c1.307,1.307,2.489,2.703,3.567,4.161L49.017,7.313z"/>
</g>
<g id="Layer_4_copy_5">
	<path d="M41.41,14.919c-0.618-0.771-1.281-1.518-1.996-2.232l-2.828,2.828c0.718,0.718,1.368,1.477,1.966,2.263L41.41,14.919z"/>
</g>
<g id="Layer_4_copy_6">
	<path d="M43.323,30.346c0.463,6.508-1.771,13.173-6.737,18.139l2.828,2.828c6.655-6.655,9.133-15.915,7.469-24.527L43.323,30.346z"
		/>
</g>
<g id="Layer_4_copy_7">
	<polygon points="14.069,42.26 35,21.329 35,5.482 12.329,23 7,23 7,24 7,41 12.337,41 	"/>
</g>
<g id="Layer_4_copy_8">
	<polygon points="24.109,49.561 35,57.481 35,38.67 	"/>
</g>
<g id="Layer_4_copy_9">
	<rect x="29.846" y="-4.997" transform="matrix(0.7069 0.7073 -0.7073 0.7069 32.5113 -13.4614)" width="5.306" height="74.993"/>
</g>
</svg>
